# xmcd
#
# Track frame offsets:
#	150
#	15563
#	32301
#	44809
#	57368
#	74641
#	91477
#	107852
#	123585
#	140768
#	160930
#	177803
#	190640
#	206960
#	222820
#	240662
#	252577
#	264796
#	280620
#	293930
#	310737
#
# Disc length: 4358 seconds
#
# Revision: 1
# Processed by: cddbd v1.5.2PL0 Copyright (c) Steve Scherf et al.
# Submitted via: EasyCDDAExtractor 12.0.1.1
#
DISCID=3e110415
DTITLE=Joe Diffie - The Ultimate Hits
DYEAR=2009
DGENRE=Country
TTITLE0=Home
TTITLE1=If You Want Me To
TTITLE2=If The Devil Danced (In Empty Pockets)
TTITLE3=New Way (To Light Up An Old Flame)
TTITLE4=Is It Cold In Here
TTITLE5=Ships That Don't Come In
TTITLE6=Next Thing Smokin'
TTITLE7=Honky Tonk Attitude
TTITLE8=Prop Me Up Beside The Jukebox (If I Die)
TTITLE9=John Deere Green
TTITLE10=In My Own Backyard
TTITLE11=Third Rock From The Sun
TTITLE12=Pickup Man
TTITLE13=So Help The Girl
TTITLE14=Bigger Than The Beatles
TTITLE15=C-O-U-N-T-R-Y
TTITLE16=Texas-Sized Heartache
TTITLE17=A Night To Remember
TTITLE18=It's Always Somethin'
TTITLE19=In Another World
TTITLE20=Long Gone Loner (With Peter Dula And The Rowers)
EXTD=
EXTT0=
EXTT1=
EXTT2=
EXTT3=
EXTT4=
EXTT5=
EXTT6=
EXTT7=
EXTT8=
EXTT9=
EXTT10=
EXTT11=
EXTT12=
EXTT13=
EXTT14=
EXTT15=
EXTT16=
EXTT17=
EXTT18=
EXTT19=
EXTT20=
PLAYORDER=
